<?xml version="1.0" encoding="UTF-8"?>
<svg id="Layer_2" data-name="Layer 2" xmlns="http://www.w3.org/2000/svg" viewBox="0 0 24.39 19.83">
  <defs>
    <style>
      .cls-1 {
        fill: #e5ba73;
        stroke-width: 0px;
      }
    </style>
  </defs>
  <g id="Layer_1-2" data-name="Layer 1">
    <path class="cls-1" d="M5.98,19.83c-1.16,0-2.1-.24-2.83-.71-.74-.47-1.34-1.07-1.81-1.81-.53-.89-.88-1.82-1.06-2.79-.18-.97-.28-1.77-.28-2.4,0-2.57.66-4.9,1.97-7S5.32,1.31,8.1,0l.71,1.42c-1.63.68-3.03,1.76-4.21,3.23-1.18,1.47-1.77,2.96-1.77,4.48,0,.63.08,1.18.24,1.65.84-.68,1.81-1.02,2.91-1.02,1.36,0,2.54.45,3.54,1.34s1.5,2.12,1.5,3.7c0,1.47-.5,2.67-1.5,3.62-1,.94-2.18,1.42-3.54,1.42ZM19.35,19.83c-1.15,0-2.1-.24-2.83-.71-.74-.47-1.34-1.07-1.81-1.81-.52-.89-.88-1.82-1.06-2.79-.18-.97-.28-1.77-.28-2.4,0-2.57.66-4.9,1.97-7,1.31-2.1,3.36-3.8,6.14-5.11l.71,1.42c-1.63.68-3.03,1.76-4.21,3.23-1.18,1.47-1.77,2.96-1.77,4.48,0,.63.08,1.18.24,1.65.84-.68,1.81-1.02,2.91-1.02,1.36,0,2.54.45,3.54,1.34s1.5,2.12,1.5,3.7c0,1.47-.5,2.67-1.5,3.62-1,.94-2.18,1.42-3.54,1.42Z"/>
  </g>
</svg>