<?xml version="1.0" encoding="UTF-8"?>
<svg id="Layer_1" data-name="Layer 1" xmlns="http://www.w3.org/2000/svg" viewBox="0 0 20 20">
  <defs>
    <style>
      .cls-1 {
        fill: #e5ba73;
        stroke-width: 0px;
      }
    </style>
  </defs>
  <path class="cls-1" d="M11.66,12.24c-.49.33-1.07.5-1.66.5s-1.17-.17-1.66-.5L.2,6.81s-.09-.06-.13-.09v8.89c0,1.02.83,1.83,1.83,1.83h16.21c1.02,0,1.83-.83,1.83-1.83V6.72s-.09.06-.13.09l-8.14,5.43Z"/>
  <path class="cls-1" d="M.84,5.84l8.14,5.43c.31.21.66.31,1.01.31s.71-.1,1.01-.31l8.14-5.43c.49-.32.78-.87.78-1.45,0-1.01-.82-1.83-1.83-1.83H1.89c-1.01,0-1.83.82-1.83,1.83,0,.59.29,1.13.78,1.45Z"/>
</svg>