<?xml version="1.0" encoding="UTF-8"?>
<svg id="Layer_1" data-name="Layer 1" xmlns="http://www.w3.org/2000/svg" viewBox="0 0 20 20">
  <defs>
    <style>
      .cls-1 {
        fill: #e5ba73;
        stroke-width: 0px;
      }
    </style>
  </defs>
  <path class="cls-1" d="M14.97.07H5.03C2.3.07.07,2.3.07,5.03v9.93c0,2.73,2.23,4.97,4.97,4.97h9.93c2.73,0,4.97-2.23,4.97-4.97V5.03C19.93,2.3,17.7.07,14.97.07ZM10,14.14c-2.29,0-4.14-1.85-4.14-4.14s1.85-4.14,4.14-4.14,4.14,1.85,4.14,4.14-1.85,4.14-4.14,4.14ZM15.38,5.86c-.69,0-1.24-.56-1.24-1.24s.56-1.24,1.24-1.24,1.24.56,1.24,1.24-.56,1.24-1.24,1.24Z"/>
</svg>