<?xml version="1.0" encoding="UTF-8"?>
<svg id="Layer_1" data-name="Layer 1" xmlns="http://www.w3.org/2000/svg" viewBox="0 0 20 20">
  <defs>
    <style>
      .cls-1 {
        fill: #e5ba73;
        stroke-width: 0px;
      }
    </style>
  </defs>
  <path class="cls-1" d="M17.09,8.4c.02-2.81-2.37-5.39-5.34-5.75-.06,0-.12-.02-.19-.03-.15-.02-.3-.05-.45-.05-.61,0-.77.43-.81.68-.04.25,0,.46.12.62.2.27.56.32.84.36.08.01.16.02.23.04,2.67.6,3.57,1.53,4,4.18.01.06.02.14.02.23.02.32.06.97.77.97h0c.06,0,.12,0,.19-.02.66-.1.64-.7.63-.99,0-.08,0-.16,0-.21,0-.01,0-.03,0-.04Z"/>
  <path class="cls-1" d="M10.93,1.61c.08,0,.15.01.22.02,4.38.67,6.4,2.75,6.95,7.16,0,.08.01.17.01.26,0,.34.02,1.06.79,1.08h.02c.24,0,.43-.07.57-.22.24-.25.22-.62.21-.92,0-.07,0-.14,0-.2C19.76,4.28,15.85.19,11.34.04c-.02,0-.04,0-.05,0,0,0-.03,0-.05,0-.04,0-.1,0-.16,0-.07,0-.15-.01-.23-.01-.72,0-.86.51-.87.82-.04.7.64.75.97.78Z"/>
  <path class="cls-1" d="M17.89,14.51c-.09-.07-.19-.14-.28-.22-.48-.38-.99-.74-1.48-1.08-.1-.07-.2-.14-.31-.21-.63-.44-1.2-.66-1.73-.66-.72,0-1.35.4-1.87,1.18-.23.35-.51.52-.85.52-.2,0-.43-.06-.69-.17-2.03-.92-3.49-2.34-4.32-4.2-.4-.9-.27-1.49.44-1.97.4-.27,1.15-.78,1.1-1.75-.06-1.1-2.49-4.42-3.52-4.8-.43-.16-.89-.16-1.36,0C1.84,1.53,1,2.23.58,3.15c-.41.89-.39,1.93.05,3.02,1.28,3.14,3.08,5.88,5.34,8.14,2.22,2.21,4.95,4.02,8.11,5.38.28.12.58.19.8.24.07.02.14.03.19.04.03,0,.05.01.08.01h.02s0,0,0,0c1.49,0,3.27-1.36,3.82-2.91.48-1.36-.4-2.03-1.1-2.56Z"/>
  <path class="cls-1" d="M11.59,5.2c-.25,0-.78.02-.97.56-.09.25-.08.47.03.65.16.26.46.34.74.39,1,.16,1.51.71,1.61,1.74.05.48.37.81.78.81h0s.06,0,.09,0c.5-.06.74-.42.72-1.08,0-.69-.35-1.47-.97-2.09-.62-.62-1.36-.98-2.03-.96Z"/>
</svg>