<svg xmlns="http://www.w3.org/2000/svg" width="24" height="24" viewBox="0 0 24 24">
    <g fill="none" fill-rule="evenodd">
        <rect width="24" height="24" fill="#98272A" rx="1"/>
        <g fill="#FFF">
            <path d="M4.603 12.537l-.118.564H3.97c.04-.186.079-.387.123-.578.01-.041.02-.084.029-.13a.61.61 0 0 1 .01-.098c.02-.229-.152-.27-.318-.2-.1.037-.143.102-.192.186-.044.074-.058.144-.078.237l-.128.583h-.51l.299-1.39.47-.013c-.018.089-.043.173-.058.261.192-.22.436-.33.721-.252.284.075.344.346.299.606-.006.08-.015.15-.034.224M13.903 11.083h.5l-.445 2.023h-.46a3.37 3.37 0 0 1 .063-.224 1.084 1.084 0 0 1-.275.2v-.303a.458.458 0 0 0 .113-.041c.148-.089.205-.247.205-.406l-.01-.08a.205.205 0 0 0-.132-.176c-.048-.028-.117-.028-.176-.019v-.359c.03 0 .054.01.079.01a.495.495 0 0 1 .334.256l.204-.881zm-.617 2a.408.408 0 0 1-.118.037.527.527 0 0 1-.358-.01c-.166-.056-.25-.163-.313-.307-.147-.354.014-.858.377-1.03a.811.811 0 0 1 .412-.075v.36a.298.298 0 0 0-.113.036.387.387 0 0 0-.166.215.508.508 0 0 0-.025.307c.01.047.03.08.059.107a.31.31 0 0 0 .245.056M9.746 11.73l-.103.3a1.868 1.868 0 0 0-.392-.066c-.045 0-.078-.005-.112.004-.104.024-.148.112-.07.178.098.093.27.116.393.19.03.02.063.047.098.075.097.145.083.299-.02.448-.162.228-.47.252-.75.233-.152-.01-.28-.037-.432-.065l.094-.336c.186.047.304.089.48.07.078-.005.192 0 .192-.103-.02-.074-.094-.121-.172-.153-.118-.052-.245-.084-.338-.173a.327.327 0 0 1-.07-.224c0-.093.03-.158.074-.219.25-.34.766-.242 1.128-.158M6.839 11.698l.52-.01c-.04.173-.08.346-.119.527-.024.117-.073.267-.038.383.02.065.043.088.107.107.074.023.168.01.226-.033.176-.12.225-.321.27-.517l.107-.466h.506L8.103 13.1c-.147.005-.294-.004-.446 0 .015-.08.035-.196.054-.275-.054.047-.098.098-.157.14a.668.668 0 0 1-.613.098.434.434 0 0 1-.24-.247c-.059-.145-.034-.242-.01-.392.04-.242.094-.49.148-.727M6.26 11.083h.5l-.45 2.023h-.462c.02-.075.044-.15.063-.224a1.04 1.04 0 0 1-.269.2v-.303a.472.472 0 0 0 .113-.041c.142-.089.201-.247.201-.406l-.005-.08a.212.212 0 0 0-.136-.176.27.27 0 0 0-.173-.019v-.359c.025 0 .049.01.078.01.138.032.26.12.334.256l.206-.881zm-.618 2a.542.542 0 0 1-.118.037.538.538 0 0 1-.362-.01.514.514 0 0 1-.315-.307c-.142-.354.021-.858.379-1.03a.83.83 0 0 1 .416-.075v.36a.33.33 0 0 0-.118.036.418.418 0 0 0-.166.215.52.52 0 0 0-.025.307c.01.047.03.08.063.107.07.056.157.07.246.056M2.529 11.083h.524L2.617 13.1h-.53M12.257 12.537l-.123.564h-.52c.044-.186.088-.387.128-.578.01-.041.02-.084.034-.125 0-.038 0-.07.005-.103.025-.229-.158-.27-.32-.2-.092.041-.136.102-.185.186a.576.576 0 0 0-.079.237l-.132.583h-.5l.29-1.39c.155-.004.313-.004.47-.013l-.06.261c.192-.22.437-.33.721-.252.285.075.344.346.305.611-.01.075-.02.144-.034.219M10.148 11.083h.53L10.24 13.1h-.53M19.964 12.551l-.123.569h-.52c.04-.191.09-.397.129-.583.008-.047.019-.088.029-.135a.62.62 0 0 1 .01-.099c.02-.228-.157-.27-.324-.2-.094.038-.137.103-.19.187-.045.075-.06.145-.08.238l-.128.587h-.51l.295-1.399.476-.014-.06.262c.187-.22.442-.331.722-.257.294.08.348.355.308.616-.005.079-.02.149-.034.228M20.552 11.083h.515l-.265 1.203.52-.579h.579l-.608.639.382.765h-.55l-.337-.742-.162.742h-.505M18.165 12.37c-.044.2-.088.395-.128.591l-.02.159h-.426l.03-.215c-.074.07-.153.13-.236.173v-.243c.005-.004.014-.004.024-.01.055-.027.094-.046.123-.074a.662.662 0 0 0 .132-.265h-.073c-.063 0-.137-.004-.206 0v-.233c.103-.01.22-.005.338-.005 0-.122-.049-.214-.181-.242-.059-.01-.112-.01-.157-.01v-.289c.32-.037.657.014.775.29.058.14.025.228.005.372m-.78.709a.79.79 0 0 1-.25.07c-.191.018-.392-.065-.475-.233-.06-.094-.044-.196-.02-.303.025-.103.074-.159.2-.243.182-.083.36-.112.545-.116v.233a.416.416 0 0 0-.196.056c-.098.07-.137.2-.03.28.064.041.153.037.226.013v.243zm0-1.082a.807.807 0 0 0-.206.024c-.088.018-.152.046-.235.083l.058-.326c.119-.027.245-.056.383-.07M15.65 11.246h.269c.236 0 .599.033.666.294.015.042.02.083.02.125v.005a.447.447 0 0 1-.225.383c-.103.046-.19.07-.294.097.264.042.437.215.382.49-.079.382-.456.442-.819.466v-.336c.02 0 .04-.005.055-.01.303-.046.372-.382.083-.442a.427.427 0 0 0-.138-.01v-.298c.06 0 .123-.005.177-.014.162-.037.377-.195.2-.373-.073-.074-.25-.065-.377-.055v-.322zm-.49 0h.49v.322h-.045l-.103.437c.044 0 .099.005.147.005v.299c-.068 0-.142.01-.21.014l-.103.466c.087-.005.206-.005.313-.019v.336c-.03.005-.063.005-.093.01h-.794"/>
        </g>
    </g>
</svg>
