<svg xmlns="http://www.w3.org/2000/svg" width="24" height="24" viewBox="0 0 24 24">
    <g fill="none" fill-rule="evenodd">
        <path fill-rule="nonzero" d="M0 0H24V24H0z"/>
        <g>
            <path fill="#003874" d="M0 10.564C0 4.978 5.265.449 11.761.449c6.495 0 11.76 4.529 11.76 10.115s-5.265 10.115-11.76 10.115C5.265 20.679 0 16.15 0 10.564" transform="translate(0 1)"/>
            <path fill="#ED1C24" d="M1.401 0.7L0.498 3.433 15.269 3.446 16.192 0.691 1.401 0.7" transform="translate(0 1) matrix(0 1 1 0 9.632 2.296)"/>
            <path fill="#FFF" d="M20.605 11.582c-.256 2.113-1.441 4.248-4.03 4.252-1.51.003-2.69-1.032-3.508-2.298V12.07c1.023.508 1.98 1.053 3.139 1.07 1.429.02 2.72-.528 3.255-1.558h1.144zm-8.65 1.327c-1.188 1.43-2.335 2.893-4.485 2.893-3.036 0-4.476-2.936-4.476-5.39 0-2.359 1.125-5.15 4.083-5.15 1.283 0 2.518.785 3.254 1.615l-.002 2.001c-.615-.414-1.992-.82-2.892-.835-1.876-.031-3.53.782-3.5 2.633.02 1.275 1.282 2.142 2.539 2.142 1.924 0 3.09-1.758 4.064-3.093.273-.349 1.039-1.373 1.159-1.538 1.082-1.512 2.334-2.893 4.484-2.893 2.532 0 3.954 2.041 4.356 4.143h-1.142c-.46-.682-1.344-1.099-2.215-1.099-1.99 0-3.179 1.83-4.173 3.178 0 0-.774 1.055-1.055 1.393z" transform="translate(0 1)"/>
        </g>
    </g>
</svg>
