<?xml version="1.0" encoding="utf-8"?>
<!-- Generator: Adobe Illustrator 28.2.0, SVG Export Plug-In . SVG Version: 6.00 Build 0)  -->
<svg version="1.1" id="Layer_1" xmlns="http://www.w3.org/2000/svg" xmlns:xlink="http://www.w3.org/1999/xlink" x="0px" y="0px"
	 viewBox="0 0 256.9 131.8" style="enable-background:new 0 0 256.9 131.8;" xml:space="preserve">
<style type="text/css">
	.st0{fill:#ffffff;}
	.st1{fill:#ffffff;stroke:#ffffff;stroke-width:0.8;stroke-miterlimit:10;}
	.st2{fill:#FFFFFF;}
</style>
<g>
	<g>
		<g id="Layer_2_00000016072237573045072600000002348486520473005473_">
			<g id="Layer_1-2_00000058560881052173402720000002309428152497653650_">
				<path class="st0" d="M165.7,19.5l-11.3,0.2c-15.2-12.5-37.1-12.5-52.4,0l-14.5-0.3l7.9,7.2l0,0l3.2,2.8
					c12.6-16.4,36.1-19.4,52.5-6.8c1.7,1.3,3.2,2.7,4.6,4.2l3.5-2.5L165.7,19.5z"/>
				<path class="st0" d="M83.3,26.4l44,25.1L200.2,0l-72.5,64.4l-44.9-36C82.4,27.7,82.6,26.8,83.3,26.4z"/>
				<path class="st0" d="M239.1,40.6l-0.4-4.3c1.5-3.3,2.4-6.8,2.6-10.4c-0.3-4.1-7.5-2.7-7.5-2.7v-3.5H256v3.8c0,0-7-0.3-10.1,9.3
					c-3.1,9.6-3.1,9.8-3.1,9.8L239.1,40.6z"/>
				<path class="st0" d="M238.8,36.3c-0.9,2.7-2.4,6.8-4.2,12.5c-2.9,9-6,16-7.8,21.1c-8.9-23-14.4-36.6-14.4-40.9
					c0-1.5,0.5-2.9,1.5-4c1.9-1.2,4.1-1.8,6.4-1.7c0.3,0,0.6,0,0.8-0.1v-3.5h-31.9v3.7h0.1c2.4,0.2,4.7,0.7,6.9,1.6
					c1.6,2.1,2.7,4.5,3.4,7c1.4,3.9,2.5,6.6,3.1,8.2l-12.1,31l-7.4-19.7c-2.8-6.9-5.1-14-7-21.2c-0.1-0.6-0.5-1.7-0.5-1.9L164.6,38
					c2.3,5.6,4.8,13.7,9.1,24.3l10.4,29.8h3.8l8.1-21.9l9.7-21.6c3,7.9,5,12.9,7.4,20.1c4.6,13.9,7.3,21.7,8,23.3h4.4l8.1-24.3
					l8.9-24c0.4-1.3,0.8-2.5,1.1-3.6L238.8,36.3z"/>
				<path class="st0" d="M85.8,36.3c-0.9,2.7-2.4,6.8-4.2,12.5c-2.9,9-6,16-7.9,21.1C64.8,47,59.3,33.4,59.3,29c0-1.5,0.5-2.9,1.5-4
					c1.9-1.2,4.1-1.8,6.4-1.7c0.3,0,0.6,0,0.8-0.1v-3.5H36.5v3.5l0.6,0.1c2.1,0.2,4.2,0.7,6.1,1.6c1.6,2.1,2.7,4.5,3.5,7
					c1.4,3.9,2.5,6.6,3.1,8.2l-12.1,31l-7.3-19.7c-2.5-6.1-4.6-12.4-6.3-18.7c-0.5-1.3-0.8-2.8-0.9-4.2c0-1.4-0.2-4.7,3.4-5.1
					c0.5,0,0.9-0.2,1.3-0.4v-3.2l0,0H17.3c-0.9,0-1.7,0-2.5,0h-2.2H0.1H0v3.4c0.2,0.2,0.5,0.4,0.8,0.5c1.6,0.5,3,1.4,4.2,2.5
					c2.4,3.1,4.3,6.5,5.7,10.2c2.6,5.6,5.1,14.3,9.9,26.1l10.4,29.7h3.9L43,70.3l9.6-21.6c3,7.9,5,12.9,7.4,20.1
					c4.6,13.9,7.3,21.6,8,23.3h4.4l8.1-24.3l8.7-24c0.4-1.3,0.8-2.5,1.1-3.6L85.8,36.3z"/>
				<path class="st0" d="M165.6,37.1c2,5,3.1,10.4,3.1,15.9c0,22.9-18,41.5-40.1,41.5S88.4,75.8,88.4,52.9c0-4.3,0.6-8.5,1.9-12.6
					l-3.4-3c-1.8,5-2.7,10.3-2.6,15.7c0,25.3,19.9,45.8,44.3,45.8s44.3-20.5,44.3-45.8c0-6.5-1.3-12.8-3.9-18.8L165.6,37.1z"/>
				<path class="st1" d="M119,109.6l-3.1,0.1c-4.2-3.5-10.3-3.5-14.5,0l-4-0.1l2.2,1.9l0,0l0.9,0.8c3.5-4.5,10-5.4,14.5-1.9
					c0.5,0.3,0.9,0.7,1.3,1.2l1-0.7L119,109.6z"/>
				<path class="st1" d="M96.2,111.5l12.2,6.9l20.1-14.2l-20,17.8l-12.4-10C95.9,111.9,96,111.6,96.2,111.5z"/>
				<path class="st1" d="M118.9,114.5c0.6,1.4,0.8,2.9,0.8,4.4c0,6.3-5,11.5-11.1,11.5s-11.1-5.1-11.1-11.5c0-1.2,0.2-2.4,0.5-3.5
					l-1-0.8c-0.5,1.4-0.7,2.9-0.7,4.3c0,7,5.5,12.7,12.3,12.7c6.8,0,12.3-5.7,12.3-12.7c0-1.8-0.4-3.6-1.1-5.2L118.9,114.5z"/>
				<path class="st1" d="M10.9,131.1h-1l-3.2-8.4c-1.3-3.3-2.3-5.8-3-7.3c-0.4-1-0.9-2-1.6-2.9c-0.3-0.3-0.7-0.6-1.2-0.7
					c-0.3-0.1-0.4-0.2-0.4-0.4c0-0.1,0-0.3,0.2-0.3C1,111,1.3,111,1.6,111l3.3,0.1c0.4,0,0.9,0,1.6-0.1c1-0.1,1.7-0.1,2.2-0.1
					c0.3,0,0.5,0.1,0.5,0.4c0,0.3-0.2,0.4-0.6,0.4c-0.4,0-0.7,0.2-1,0.5c-0.3,0.2-0.4,0.6-0.4,1c0,0.4,0.1,0.8,0.2,1.2
					c0.2,0.5,0.8,2.2,2,5.3l2.2,5.6l2.8-8.8c-0.2-0.4-0.5-1.2-0.9-2.3c-0.2-0.7-0.5-1.4-0.9-2c-0.3-0.2-0.7-0.4-1.1-0.4
					c-0.3-0.1-0.4-0.2-0.4-0.4c0-0.1,0-0.3,0.2-0.3c0.4-0.1,0.8-0.1,1.2-0.1l3.1,0.1L18,111c0.5,0,1,0,1.5,0c0.1,0,0.2,0.2,0.2,0.4
					s-0.2,0.4-0.5,0.4c-0.5,0-0.9,0.1-1.2,0.5c-0.3,0.3-0.4,0.7-0.4,1.1c0,1.2,1.2,5.1,3.6,11.5c0.5-1.4,1.1-3.4,1.9-5.9
					c0.8-2.5,1.2-4,1.3-4.4c0.1-0.4,0.1-0.8,0.2-1.2c0-0.5-0.1-0.9-0.5-1.2c-0.3-0.2-0.6-0.4-0.9-0.4c-0.4,0-0.6-0.2-0.6-0.4
					c0-0.3,0.2-0.4,0.6-0.4l2.2,0.1c0.7,0,1.5,0,2.2-0.1c0.4,0,0.6,0,0.7,0c0.3,0,0.5,0.1,0.5,0.4c0,0.2-0.2,0.4-0.5,0.4
					c-0.3,0-0.7,0.2-0.9,0.3c-0.4,0.3-0.7,0.8-1,1.2c-0.7,1.3-1.2,2.7-1.6,4.2l-2.2,6.7l-2.2,6.9h-0.9c-0.2-0.5-0.9-2.7-2.2-6.6
					c-0.7-2-1.4-4.1-2.2-6.3l-2.1,6.8L10.9,131.1z"/>
				<path class="st1" d="M150.9,131.1h-0.9l-3.3-8.4c-1.3-3.3-2.3-5.8-3-7.3c-0.4-1-0.9-2-1.6-2.9c-0.3-0.3-0.7-0.6-1.2-0.7
					c-0.3-0.1-0.4-0.2-0.4-0.4c0-0.1,0-0.3,0.1-0.3c0.3-0.1,0.5-0.1,0.8-0.1l3.3,0.1c0.4,0,0.9,0,1.6-0.1c1-0.1,1.7-0.1,2.2-0.1
					c0.3,0,0.5,0.1,0.5,0.4c0,0.3-0.2,0.4-0.6,0.4c-0.4,0-0.7,0.2-1,0.5c-0.3,0.2-0.4,0.6-0.4,1c0,0.4,0.1,0.8,0.2,1.2
					c0.2,0.5,0.8,2.2,2,5.3l2.2,5.6l2.8-8.8c-0.2-0.4-0.5-1.2-0.9-2.3c-0.2-0.7-0.5-1.4-0.9-2c-0.3-0.2-0.7-0.4-1.1-0.4
					c-0.3-0.1-0.4-0.2-0.4-0.4c0-0.1,0-0.3,0.2-0.3c0.4-0.1,0.8-0.1,1.2-0.1l3.1,0.1l2.5-0.1c0.5,0,1,0,1.5,0c0.1,0,0.2,0.2,0.2,0.4
					s-0.2,0.4-0.5,0.4c-0.5,0-0.9,0.1-1.2,0.5c-0.3,0.3-0.4,0.7-0.4,1.1c0,1.2,1.2,5.1,3.6,11.5c0.5-1.4,1.1-3.4,1.9-5.9
					c0.8-2.5,1.2-4,1.3-4.4c0.1-0.4,0.1-0.8,0.1-1.1c0-0.5-0.1-0.9-0.4-1.2c-0.2-0.2-0.6-0.4-0.9-0.4c-0.4,0-0.6-0.2-0.6-0.4
					s0.2-0.4,0.6-0.4l2.2,0.1c0.7,0,1.5,0,2.2-0.1c0.4,0,0.6,0,0.7,0c0.3,0,0.5,0.1,0.5,0.4c0,0.2-0.2,0.4-0.5,0.4
					c-0.3,0-0.7,0.2-0.9,0.3c-0.4,0.4-0.7,0.8-1,1.3c-0.7,1.3-1.2,2.7-1.7,4.2l-2.2,6.7l-2.2,6.9h-0.9c-0.2-0.5-0.9-2.7-2.2-6.6
					c-0.7-2-1.4-4.1-2.2-6.4l-2.1,6.8L150.9,131.1z"/>
				<path class="st1" d="M26.8,121.7c0-2.3,0.7-4.5,2.2-6.2c2.3-3,6.5-3.6,9.5-1.3c0.4,0.3,0.7,0.6,1.1,1c1.5,1.6,2.2,3.8,2.2,6
					c0,2.3-0.8,4.6-2.3,6.4c-1.5,1.8-3.3,2.7-5.3,2.7c-2,0-3.9-0.9-5.2-2.5C27.6,126.2,26.8,124,26.8,121.7z M29.7,121.6
					c-0.1,2,0.4,4,1.4,5.7c0.9,1.5,2.1,2.3,3.4,2.3c1.2,0,2.3-0.7,3.3-2.1c0.9-1.4,1.4-3.3,1.4-5.7c0-2-0.4-3.9-1.4-5.6
					c-0.9-1.7-2.1-2.5-3.5-2.5c-1.3,0-2.4,0.8-3.3,2.3C30.1,117.7,29.6,119.6,29.7,121.6L29.7,121.6z"/>
				<path class="st1" d="M71.4,130.1h-0.6c-0.3,0-0.8,0-1.5,0c-0.7,0-2.2,0-4.5,0h-2.8c-0.1,0-0.5,0-1.1,0.1s-1.1,0.1-1.2,0.1
					c-0.6,0-0.8-0.1-0.8-0.3s0.1-0.2,0.3-0.2c0.5,0,1.1-0.2,1.5-0.5c0.3-0.4,0.5-0.8,0.6-1.3c0.1-1.5,0.2-3.1,0.2-4.6v-4.6
					c0-1,0-2.1-0.2-3.1c-0.1-0.5-0.3-1-0.7-1.4c-0.3-0.3-0.8-0.5-1.2-0.5c-0.2,0-0.4-0.1-0.4-0.3c0-0.2,0.1-0.2,0.3-0.2h0.3
					c1.2,0.1,2.6,0.1,4.1,0.1l1.9,0c0.2,0,0.3,0.1,0.3,0.3s-0.1,0.2-0.3,0.2c-0.5,0-0.9,0.1-1.3,0.4c-0.3,0.2-0.6,0.5-0.7,0.8
					c-0.1,0.6-0.2,1.2-0.2,1.8l-0.1,6.1v3.4c0,0.7,0,1.4,0.1,2c0.1,0.3,0.2,0.6,0.5,0.9c0.4,0.3,0.9,0.4,1.3,0.4l2-0.1
					c1.1-0.2,2.1-0.8,2.7-1.7c0.7-0.8,1.2-1.7,1.6-2.6c0.1-0.2,0.2-0.3,0.3-0.3c0.1,0,0.2,0.1,0.2,0.3c0,0.2-0.1,1.1-0.3,2.6
					C71.6,129.1,71.5,129.9,71.4,130.1z"/>
				<path class="st1" d="M77.9,113.3l2.3-0.1c2.9,0,5.1,0.8,6.5,2.4c1.5,1.7,2.3,3.9,2.2,6.1c0,1.6-0.3,3.2-1.1,4.6
					c-0.6,1.2-1.5,2.2-2.6,2.9c-1.3,0.7-2.8,1.1-4.3,1c-0.4,0-0.9,0-1.5-0.1c-1.1-0.1-1.7-0.2-1.8-0.2c-2.4,0-3.9,0-4.3,0.1
					c-0.2,0-0.4-0.1-0.4-0.2c0-0.1,0.1-0.2,0.1-0.2c0.3-0.1,0.5-0.1,0.8-0.2c0.5,0,1-0.4,1.2-0.8c0.2-0.5,0.4-1.9,0.4-4.2l0.2-6.8
					c0-0.8,0-1.5-0.1-2.3c0-0.5-0.2-1-0.4-1.4c-0.3-0.2-0.6-0.4-0.9-0.4c-0.3-0.1-0.5-0.2-0.5-0.3c0-0.1,0.1-0.3,0.2-0.3
					c0.2,0,0.6,0,1.4,0.1S77,113.3,77.9,113.3z M77.5,125.7c0,0.8,0,1.6,0.2,2.4c0.1,0.5,0.4,0.9,0.8,1.2c0.6,0.4,1.3,0.5,2,0.5
					c1.2,0.1,2.4-0.3,3.3-1.1c0.9-0.8,1.6-1.8,2-2.9c0.5-1.2,0.7-2.6,0.7-3.9c0-2-0.5-3.9-1.6-5.5c-1.1-1.6-2.7-2.5-5-2.5
					c-0.6,0-1.2,0-1.8,0.1c-0.2,0.1-0.3,0.3-0.3,0.7c0,0.4,0,0.9-0.1,1.8c-0.1,1.2-0.1,2.2-0.1,2.9l-0.1,3.5
					C77.5,124.5,77.5,125.4,77.5,125.7z"/>
				<path class="st1" d="M126.7,121.5v3.2c0,1.2,0,2.5,0.1,3.7c0.1,0.3,0.2,0.6,0.4,0.8c0.3,0.3,0.8,0.5,1.2,0.5
					c0.3,0,0.5,0.1,0.5,0.3s-0.1,0.3-0.4,0.3c-0.1,0-0.3,0-0.7-0.1c-0.7-0.1-1.4-0.1-2-0.1c-0.5,0-1.2,0-2.1,0.1l-0.6,0
					c-0.2,0-0.4-0.1-0.4-0.3s0.2-0.3,0.5-0.3c0.4,0,0.8-0.1,1-0.5c0.2-0.3,0.3-1.1,0.4-2.3c0.1-1.2,0.1-2.9,0.1-5
					c0-1.9,0-3.5-0.1-4.6c0-0.7-0.1-1.5-0.2-2.2c-0.1-0.3-0.2-0.6-0.5-0.7c-0.4-0.2-0.8-0.3-1.2-0.3c-0.2,0-0.4-0.1-0.4-0.3
					c0-0.1,0.1-0.2,0.3-0.2c1.8-0.2,5.3-0.3,10.5-0.3c0.5,0,1,0,1.4,0c0.1,0,0.1,0.1,0.2,0.2c0,0.1,0.1,0.7,0.3,1.8
					c0.2,1.1,0.3,1.7,0.3,1.8c0,0.2-0.1,0.3-0.2,0.3s-0.2-0.1-0.3-0.3c-0.9-2-2.9-3.2-5.1-3.1c-0.7,0-1.3,0-2,0.1
					c-0.5,0.1-0.8,0.2-0.9,0.3c-0.1,0.5-0.2,1.1-0.2,1.6c0,1,0,2.6,0,5c0.6,0,1,0.1,1.2,0.1c1.1,0,1.8-0.3,2.2-0.8
					c0.4-0.5,0.6-1,0.7-1.6c0-0.4,0.1-0.6,0.3-0.6c0.2,0,0.2,0.1,0.2,0.4c0,0.1,0,0.2,0,0.3c-0.1,0.5-0.1,1.8-0.1,3.8v1.5
					c0,0.4-0.1,0.5-0.3,0.5c-0.2,0-0.2-0.1-0.2-0.4c0-0.7-0.2-1.4-0.6-1.9c-0.4-0.5-1.2-0.7-2.3-0.7
					C127.5,121.5,127.1,121.5,126.7,121.5z"/>
				<path class="st1" d="M174.1,113h0.5c0.8,1.9,2,5.3,3.4,10c0.5,1.9,1.2,3.8,1.9,5.6c0.3,0.7,0.9,1.1,1.7,1.2
					c0.2,0,0.4,0.1,0.4,0.3c0,0.2-0.1,0.2-0.2,0.2h-0.2c-0.7-0.1-1.5-0.1-2.6-0.1c-1.6,0-2.6,0-3.1,0.1c-0.2,0-0.3-0.1-0.3-0.2
					c0-0.2,0.1-0.2,0.3-0.2c0.5,0,0.9-0.1,1.3-0.4c0.3-0.2,0.4-0.5,0.4-0.8c-0.1-1-0.3-1.9-0.7-2.8l-0.7-2.2l-5.2,0.1
					c-0.8,2.4-1.2,3.9-1.2,4.5c0,0.5,0.2,0.9,0.6,1.2c0.3,0.2,0.7,0.4,1.1,0.4c0.3,0,0.4,0.1,0.4,0.3c0,0.1-0.1,0.2-0.1,0.2
					c-1.2-0.1-1.9-0.1-2.1-0.1c-1.2,0-2.1,0-2.5,0.1c-0.2,0-0.4-0.1-0.4-0.2s0.1-0.2,0.3-0.3c0.8-0.1,1.5-0.8,1.9-2
					c0.4-1.2,1.2-3.4,2.1-6.5C172.1,118.3,173.1,115.6,174.1,113z M173.6,115.8c-0.9,2.3-1.7,4.7-2.4,7.1c0.8,0,1.3-0.1,1.6-0.1
					l3.1,0.1c-0.3-0.9-0.7-2.1-1.2-3.5C174.2,117.5,173.8,116.4,173.6,115.8z"/>
				<path class="st1" d="M188.7,114c-0.6,0-1-0.1-1.2-0.1c-1.6,0-2.8,0.4-3.5,1.2c-0.6,0.6-1,1.3-1.2,2.1c0,0.2-0.1,0.3-0.3,0.3
					c-0.1,0-0.2-0.1-0.2-0.1c0.1-1.4,0.2-2.8,0.4-4.1h0.7c0.6,0,1.3,0,2.3,0.1s2.6,0.1,4.8,0.1s3.6,0,4.3-0.1
					c0.8-0.1,1.7-0.1,2.5-0.1c0.1,0.6,0.1,1.3,0.2,1.9c0,0.8,0.1,1.3,0.1,1.6c0,0.1,0,0.1,0,0.2c0,0.2-0.1,0.3-0.2,0.3
					c-0.1,0-0.2,0-0.2-0.1c-0.2-0.2-0.3-0.5-0.4-0.7c-0.3-0.6-0.7-1.1-1.2-1.6c-0.4-0.3-0.9-0.6-1.4-0.7c-1-0.1-2.1-0.2-3.1-0.2
					c-0.1,1.3-0.1,2.8-0.1,4.4c0,5.5,0.1,8.7,0.3,9.7c0.2,1,0.9,1.5,2.2,1.5c0.3,0,0.5,0.1,0.5,0.2s-0.1,0.3-0.4,0.3h-6.8
					c-0.2,0-0.3-0.1-0.3-0.2s0.2-0.2,0.5-0.2c0.5,0,1.1-0.2,1.4-0.6c0.4-0.4,0.6-1,0.6-1.5c0.1-0.6,0.1-2.5,0.1-5.6
					C189,119.2,188.9,116.6,188.7,114z"/>
				<path class="st1" d="M210.1,114.4c0.3-0.2,0.5-0.5,0.7-0.8c0.1-0.2,0.2-0.3,0.3-0.3c0.1,0,0.2,0.2,0.2,0.5l0.2,4.5
					c0,0.2,0,0.3,0,0.5c0,0.1-0.1,0.1-0.2,0.1c-0.1,0-0.2-0.2-0.4-0.5c-0.4-1.3-1.1-2.4-2-3.3c-0.7-0.8-1.8-1.3-2.9-1.3
					c-0.9,0-1.8,0.4-2.5,1c-0.8,0.8-1.4,1.8-1.8,2.9c-0.4,1.3-0.6,2.6-0.6,4c-0.1,2.1,0.5,4.2,1.8,5.9c1.2,1.5,2.5,2.3,3.9,2.3
					c1,0,1.9-0.4,2.7-1.1c0.8-0.7,1.4-1.5,1.8-2.5c0.1-0.3,0.2-0.4,0.3-0.4s0.2,0.1,0.2,0.3c-0.2,0.6-0.5,1.2-0.8,1.6
					c-0.6,0.8-1.3,1.5-2.2,2c-0.9,0.5-1.9,0.8-2.9,0.8c-1.2,0-2.5-0.4-3.5-1.1c-1.1-0.7-2-1.8-2.6-3c-0.7-1.4-1-2.9-1-4.5
					c0-1.6,0.3-3.1,1-4.6c0.6-1.3,1.5-2.4,2.7-3.2c1-0.7,2.3-1.1,3.5-1.1c0.7,0,1.4,0.1,2,0.4C208.7,113.6,209.4,113.9,210.1,114.4z
					"/>
				<path class="st1" d="M225.4,121.3l0.1-3.6c0-1.6-0.1-2.6-0.4-3.1c-0.3-0.5-0.8-0.8-1.4-0.7c-0.4,0-0.6-0.1-0.6-0.3
					c0-0.2,0.1-0.2,0.3-0.2l3.2,0.1l2.7-0.1c0.2,0,0.3,0.1,0.3,0.2c0,0.2-0.1,0.2-0.2,0.2c-0.5,0-0.9,0.1-1.3,0.3
					c-0.3,0.2-0.6,0.6-0.6,1c-0.2,1.3-0.2,2.6-0.2,3.9c-0.1,2.1-0.1,3.7-0.1,4.7l0,3.2c-0.1,0.6,0,1.3,0.2,1.9
					c0.2,0.3,0.4,0.5,0.7,0.7c0.3,0.2,0.6,0.3,1,0.3c0.2,0,0.4,0.1,0.4,0.2c0,0.1-0.1,0.2-0.3,0.2l-3.4-0.1l-2.2,0.1
					c-0.3,0-0.4-0.1-0.4-0.2c0-0.2,0.1-0.2,0.3-0.2c0.4,0,0.8-0.1,1.2-0.3c0.2-0.2,0.4-0.5,0.4-0.8c0.1-0.6,0.2-1.3,0.2-1.9l0.1-4.7
					c-0.6-0.1-1.3-0.1-1.9-0.1c-1.8,0-3.6,0-5.4,0.2c-0.1,1.6-0.1,3-0.1,4c0,0.7,0,1.5,0.1,2.2c0.1,0.3,0.2,0.6,0.4,0.8
					c0.3,0.3,0.6,0.4,1,0.5c0.3,0.1,0.4,0.2,0.4,0.3c0,0.1-0.1,0.2-0.2,0.2c-0.1,0-0.1,0-0.2,0c-0.8-0.1-1.7-0.1-2.5-0.1
					c-0.8,0-1.7,0-2.5,0.1c-0.1,0-0.1,0-0.2,0c-0.2,0-0.3-0.1-0.3-0.2s0.1-0.2,0.3-0.3c0.5,0,0.9-0.2,1.2-0.5
					c0.2-0.3,0.4-1.4,0.5-3.3c0.1-1.9,0.1-4.2,0.1-6.9c0.1-1.4,0-2.8-0.3-4.1c-0.2-0.6-0.7-1-1.3-0.9c-0.2,0-0.2-0.1-0.2-0.2
					s0.2-0.3,0.5-0.3l4.5-0.1c0.2,0,0.4,0,0.6,0c0.1,0,0.1,0.1,0.1,0.2s-0.1,0.2-0.3,0.2c-0.7,0.1-1.2,0.2-1.3,0.5
					c-0.2,0.2-0.2,1.6-0.2,4.2c0,0.3,0,1.2,0,2.8c0.8,0.1,1.6,0.1,2.7,0.1C222,121.4,223.6,121.3,225.4,121.3z"/>
				<path class="st1" d="M242.7,113.5c0.2,1,0.4,2.3,0.6,4c0,0.1-0.1,0.1-0.1,0.1c-0.1,0-0.1,0-0.2-0.1c-0.4-0.8-0.9-1.5-1.5-2.2
					c-0.4-0.4-0.9-0.8-1.4-1.1c-0.8-0.3-1.6-0.4-2.4-0.3c-0.9,0-1.7,0.1-2.6,0.2c-0.1,0.1-0.1,0.3-0.1,0.5c0,0.1,0,0.2,0,0.3
					c-0.1,0.7-0.1,2.5-0.1,5.5c0,0.1,0,0.3,0,0.5c0.6,0,0.9,0,1.2,0c0.7,0.1,1.4-0.1,2-0.5c0.6-0.6,0.9-1.3,1.1-2.1
					c0.1-0.2,0.1-0.3,0.2-0.3s0.2,0.1,0.2,0.4l0,0.5c-0.1,0.7-0.1,1.4-0.1,2.1c0,1.2,0,2.2,0.1,3.1c0,0.3-0.1,0.4-0.2,0.4
					c-0.1,0-0.2-0.1-0.2-0.3c-0.1-0.8-0.4-1.6-1-2.2c-0.5-0.4-1.6-0.7-3.2-0.7c0,0.6,0,1.6,0,3c0,1.1,0,2.3,0.2,3.4
					c0.1,0.5,0.4,0.9,0.8,1.2c0.7,0.3,1.4,0.5,2.1,0.4c2.9,0,4.7-1.1,5.6-3.4c0.1-0.3,0.2-0.4,0.3-0.4c0.1,0,0.2,0.1,0.2,0.3
					c0,0.1,0,0.2-0.1,0.3c0,0.2-0.2,0.8-0.3,1.8c0,0.2-0.2,0.9-0.4,2h-4.6c-0.7,0-1.6,0-2.9-0.1c-1.3-0.1-2.4-0.1-3.4-0.1
					c-0.5,0-1,0-1.6-0.1c0,0-0.1-0.1-0.1-0.1c0-0.2,0.1-0.3,0.4-0.3c0.6,0.1,1.3-0.2,1.6-0.8c0.3-0.5,0.4-1.7,0.4-3.7v-2.6l0-2.5
					c0-0.5,0-1.4-0.1-2.8c-0.1-1.4-0.1-2.2-0.1-2.3c-0.1-0.2-0.2-0.4-0.3-0.6c-0.4-0.3-0.8-0.5-1.2-0.6c-0.2-0.1-0.3-0.2-0.3-0.3
					s0.1-0.2,0.4-0.2l2.3,0.1c0.8,0,2.8,0.1,5.9,0.1C241.6,113.4,242.6,113.4,242.7,113.5z"/>
				<path class="st1" d="M253.7,114.2c0.2-0.2,0.3-0.5,0.4-0.7c0.1-0.2,0.1-0.3,0.3-0.3c0.1,0,0.2,0.1,0.2,0.1
					c0.1,0.3,0.1,0.9,0.2,1.9l0.3,2.4c0,0.2-0.1,0.2-0.2,0.2c-0.1,0-0.2-0.1-0.2-0.3c-0.4-1.1-1-2-1.8-2.8c-0.7-0.7-1.6-1.1-2.5-1.1
					c-0.8-0.1-1.6,0.3-2,0.9c-0.4,0.6-0.7,1.3-0.7,2c0,0.7,0.2,1.4,0.7,2c0.9,0.7,2,1.2,3.1,1.5c0.9,0.3,1.8,0.7,2.6,1.2
					c0.6,0.4,1.1,1,1.4,1.6c0.4,0.7,0.6,1.4,0.6,2.2c0,1.3-0.5,2.6-1.5,3.6c-0.9,1-2.2,1.6-3.6,1.6c-1.4,0-2.7-0.5-3.8-1.4
					c-0.2,0.2-0.4,0.5-0.5,0.8c-0.1,0.3-0.2,0.4-0.3,0.4s-0.2-0.2-0.3-0.5s-0.2-2-0.3-5c0-0.1,0.1-0.2,0.2-0.2
					c0.1,0,0.2,0.1,0.3,0.3c1.1,3.3,2.7,5,4.8,5c0.9,0,1.8-0.4,2.4-1.1c0.6-0.7,0.9-1.5,0.9-2.4c0-0.6-0.2-1.2-0.5-1.8
					c-0.3-0.5-0.7-1-1.2-1.3c-0.8-0.4-1.6-0.8-2.4-1.1c-1-0.3-2-0.8-2.9-1.5c-0.5-0.4-0.9-1-1.1-1.6c-0.2-0.5-0.3-1.1-0.4-1.7
					c0-1.1,0.5-2.2,1.3-3c0.9-0.9,2-1.3,3.3-1.3c0.5,0,1,0.1,1.5,0.3C252.6,113.6,253.2,113.9,253.7,114.2z"/>
				<path class="st1" d="M49.3,129.9c-0.5,0-0.9-0.1-1.3-0.5c-0.3-0.4-0.5-0.9-0.5-1.4c-0.1-0.6-0.1-2-0.1-4.2c0-0.6,0-1.1,0.1-1.7
					c0.4-0.1,0.9-0.1,1.3-0.1c0.7,0,1.4,0.1,2,0.4c0.3-0.2,0-0.3,0.4-0.4c-0.1,0,0.5-0.1,0.4-0.2c0.7-0.2,1.5-0.5,2.2-0.9
					c0.5-0.3,0.9-0.8,1.2-1.3c0.3-0.6,0.5-1.3,0.5-2c0-1.1-0.4-2.2-1.2-2.9c-0.8-0.8-2.1-1.2-3.9-1.2l-6.5,0.2
					c-0.3,0-0.5,0.1-0.5,0.2c0,0.1,0.1,0.2,0.2,0.2c0.5,0,1,0.2,1.4,0.5c0.3,0.4,0.4,0.8,0.4,1.3c0.1,0.6,0.1,2,0.1,4v3.9v2.6
					c0,0.7,0,1.5-0.2,2.2c-0.1,0.3-0.3,0.7-0.5,0.9c-0.3,0.2-0.8,0.3-1.2,0.3c-0.3,0-0.4,0.1-0.4,0.2c0,0.1,0.2,0.3,0.5,0.3h5.4
					c0.3,0,0.5-0.1,0.5-0.3S49.5,129.9,49.3,129.9z M47.5,114.3c0.7-0.2,1.4-0.3,2.2-0.3c1-0.1,2,0.3,2.6,1.1
					c0.6,0.7,0.8,1.6,0.8,2.5c0,0.8-0.2,1.7-0.7,2.3c-0.4,0.6-1.1,1.1-1.8,1.3c-1,0.2-2.1,0.4-3.2,0.3c0-0.6-0.1-1.2-0.1-1.7
					C47.4,118.5,47.4,116.7,47.5,114.3L47.5,114.3z"/>
				<path class="st1" d="M50.9,121.8l4.9,7.2c0.1,0.2,0.2,0.3,0.3,0.4l0.4,0.1c0.2,0,0.3,0,0.5,0c0.6,0,0.6,0.3,0.6,0.3
					c0,0.2,0,0.4-0.3,0.4h-2.9c-0.2,0-0.3-0.1-0.4-0.2l-4.9-7.6c-0.4-0.7,0-0.7,0.3-0.7l0.8-0.2C50.6,121.6,50.8,121.7,50.9,121.8z"
					/>
			</g>
		</g>
	</g>
</g>
</svg>
