<svg xmlns="http://www.w3.org/2000/svg" xmlns:xlink="http://www.w3.org/1999/xlink" width="47.345" height="47.345" viewBox="0 0 47.345 47.345">
  <defs>
    <clipPath id="clip-path">
      <path id="path930" d="M0-682.665H47.345v47.346H0Z" transform="translate(0 682.665)"/>
    </clipPath>
  </defs>
  <g id="g924" transform="translate(0 0)">
    <g id="g926" transform="translate(0 0)">
      <g id="g928" clip-path="url(#clip-path)">
        <g id="g934" transform="translate(1.849 5.548)">
          <path id="path936" d="M-585.685-461.6a5.548,5.548,0,0,1-5.548,5.548h-32.55a5.548,5.548,0,0,1-5.548-5.548V-490.45A5.548,5.548,0,0,1-623.784-496h32.55a5.548,5.548,0,0,1,5.548,5.548v19.6" transform="translate(629.332 495.999)" fill="rgba(0,0,0,0)" stroke="#886f59" stroke-linecap="round" stroke-linejoin="round" stroke-miterlimit="10" stroke-width="3"/>
        </g>
        <g id="g938" transform="translate(11.559 1.849)">
          <path id="path940" d="M0,0V7.4" fill="rgba(0,0,0,0)" stroke="#886f59" stroke-linecap="round" stroke-linejoin="round" stroke-miterlimit="10" stroke-width="3"/>
        </g>
        <g id="g942" transform="translate(35.694 1.849)">
          <path id="path944" d="M0-99.269v-7.4" transform="translate(0 106.666)" fill="rgba(0,0,0,0)" stroke="#886f59" stroke-linecap="round" stroke-linejoin="round" stroke-miterlimit="10" stroke-width="3"/>
        </g>
        <g id="g946" transform="translate(23.58 1.849)">
          <path id="path948" d="M0,0V7.4" fill="rgba(0,0,0,0)" stroke="#886f59" stroke-linecap="round" stroke-linejoin="round" stroke-miterlimit="10" stroke-width="3"/>
        </g>
        <g id="g950" transform="translate(18.217 24.135)">
          <path id="path952" d="M0,0H2.034" fill="rgba(0,0,0,0)" stroke="#886f59" stroke-linecap="round" stroke-miterlimit="10" stroke-width="3"/>
        </g>
        <g id="g954" transform="translate(9.347 31.163)">
          <path id="path956" d="M0,0H2.034" fill="rgba(0,0,0,0)" stroke="#886f59" stroke-linecap="round" stroke-miterlimit="10" stroke-width="3"/>
        </g>
        <g id="g958" transform="translate(9.347 24.135)">
          <path id="path960" d="M0,0H2.034" fill="rgba(0,0,0,0)" stroke="#886f59" stroke-linecap="round" stroke-miterlimit="10" stroke-width="3"/>
        </g>
        <g id="g962" transform="translate(27.094 31.163)">
          <path id="path964" d="M0,0H2.034" fill="rgba(0,0,0,0)" stroke="#886f59" stroke-linecap="round" stroke-miterlimit="10" stroke-width="3"/>
        </g>
        <g id="g966" transform="translate(27.094 24.135)">
          <path id="path968" d="M0,0H2.034" fill="rgba(0,0,0,0)" stroke="#886f59" stroke-linecap="round" stroke-miterlimit="10" stroke-width="3"/>
        </g>
        <g id="g970" transform="translate(18.217 31.163)">
          <path id="path972" d="M0,0H2.034" fill="rgba(0,0,0,0)" stroke="#886f59" stroke-linecap="round" stroke-miterlimit="10" stroke-width="3"/>
        </g>
        <g id="g974" transform="translate(9.347 38.191)">
          <path id="path976" d="M0,0H2.034" fill="rgba(0,0,0,0)" stroke="#886f59" stroke-linecap="round" stroke-miterlimit="10" stroke-width="3"/>
        </g>
        <g id="g978" transform="translate(27.094 38.191)">
          <path id="path980" d="M0,0H2.034" fill="rgba(0,0,0,0)" stroke="#886f59" stroke-linecap="round" stroke-miterlimit="10" stroke-width="3"/>
        </g>
        <g id="g982" transform="translate(18.217 38.191)">
          <path id="path984" d="M0,0H2.034" fill="rgba(0,0,0,0)" stroke="#886f59" stroke-linecap="round" stroke-miterlimit="10" stroke-width="3"/>
        </g>
        <g id="g986" transform="translate(35.971 31.163)">
          <path id="path988" d="M0,0H2.034" fill="rgba(0,0,0,0)" stroke="#886f59" stroke-linecap="round" stroke-miterlimit="10" stroke-width="3"/>
        </g>
        <g id="g990" transform="translate(35.971 24.135)">
          <path id="path992" d="M0,0H2.034" fill="rgba(0,0,0,0)" stroke="#886f59" stroke-linecap="round" stroke-miterlimit="10" stroke-width="3"/>
        </g>
        <g id="g994" transform="translate(1.849 16.645)">
          <path id="path996" d="M0,0H43.647" fill="rgba(0,0,0,0)" stroke="#886f59" stroke-linecap="round" stroke-linejoin="round" stroke-miterlimit="10" stroke-width="3"/>
        </g>
      </g>
    </g>
  </g>
</svg>
