<svg xmlns="http://www.w3.org/2000/svg" width="27.338" height="25.27" viewBox="0 0 27.338 25.27">
  <g id="whatsapp_2_" data-name="whatsapp (2)" transform="translate(-6.854 -7.002)">
    <path id="Path_5" data-name="Path 5" d="M144.3,141.863h-1.289a2.475,2.475,0,0,0-1.793.839,7.506,7.506,0,0,0-2.354,5.591c0,3.3,2.41,6.485,2.746,6.933s4.653,7.432,11.489,10.119c5.682,2.233,6.838,1.789,8.071,1.677s3.98-1.621,4.54-3.187a5.589,5.589,0,0,0,.393-3.187c-.168-.279-.617-.447-1.289-.782s-3.969-1.985-4.586-2.209-1.065-.335-1.514.336-1.77,2.221-2.162,2.668-.785.5-1.457.168a18.6,18.6,0,0,1-5.386-3.34,20.61,20.61,0,0,1-3.78-4.714c-.392-.671-.042-1.033.3-1.368.3-.3.711-.711,1.047-1.1a4.535,4.535,0,0,0,.656-1.118,1.231,1.231,0,0,0-.056-1.174c-.168-.335-1.459-3.65-2.057-4.976h0C145.313,141.92,144.783,141.883,144.3,141.863Zm0,0" transform="translate(-132.013 -134.861)" fill="#886f59"/>
  </g>
</svg>
