<svg xmlns="http://www.w3.org/2000/svg" width="21.723" height="30.807" viewBox="0 0 21.723 30.807">
  <g id="Group_19" data-name="Group 19" transform="translate(-940 -2643.193)">
    <path id="path2517" d="M-210.138-613.858c-3.586-5.379-9.861-12.67-9.861-18.946a9.872,9.872,0,0,1,9.861-9.861,9.873,9.873,0,0,1,9.861,9.861C-200.277-626.528-206.552-619.237-210.138-613.858Z" transform="translate(1161 3286.858)" fill="none" stroke="#886f59" stroke-linecap="round" stroke-linejoin="round" stroke-miterlimit="10" stroke-width="2"/>
    <g id="g2519" transform="translate(946.379 2649.572)">
      <path id="path2521" d="M-95.517-191.035A4.488,4.488,0,0,1-100-195.517,4.488,4.488,0,0,1-95.517-200a4.488,4.488,0,0,1,4.482,4.482A4.488,4.488,0,0,1-95.517-191.035Z" transform="translate(100 200)" fill="none" stroke="#886f59" stroke-linecap="round" stroke-linejoin="round" stroke-miterlimit="10" stroke-width="2"/>
    </g>
  </g>
</svg>
