<svg xmlns="http://www.w3.org/2000/svg" width="25.246" height="25.27" viewBox="0 0 25.246 25.27">
  <g id="whatsapp_2_" data-name="whatsapp (2)" transform="translate(0)">
    <path id="Path_4" data-name="Path 4" d="M21.515,3.67a12.63,12.63,0,0,0-17.8,0A12.4,12.4,0,0,0,0,12.518v.006a12.461,12.461,0,0,0,1.538,5.914L.035,25.27,6.945,23.7a12.649,12.649,0,0,0,5.673,1.348h.005a12.589,12.589,0,0,0,8.906-3.667A12.389,12.389,0,0,0,21.515,3.67Zm-8.893,19.4h0a10.66,10.66,0,0,1-5.067-1.284l-.327-.177-4.6,1.045,1-4.536-.192-.332a10.542,10.542,0,0,1-1.462-5.267A10.647,10.647,0,0,1,20.123,5.067a10.484,10.484,0,0,1,3.15,7.46A10.614,10.614,0,0,1,12.622,23.074Zm0,0" transform="translate(0)" fill="#886f59"/>
    <path id="Path_5" data-name="Path 5" d="M141.2,141.863h-.553a1.062,1.062,0,0,0-.77.36,3.222,3.222,0,0,0-1.011,2.4,5.589,5.589,0,0,0,1.179,2.976,11.835,11.835,0,0,0,4.932,4.344c2.439.959,2.936.768,3.465.72a2.916,2.916,0,0,0,1.949-1.368,2.4,2.4,0,0,0,.169-1.368c-.072-.12-.265-.192-.554-.336s-1.7-.852-1.969-.948-.457-.144-.65.144-.76.953-.928,1.145-.337.216-.626.072a7.984,7.984,0,0,1-2.312-1.434,8.847,8.847,0,0,1-1.623-2.024c-.168-.288-.018-.444.127-.587.13-.129.305-.305.449-.473a1.947,1.947,0,0,0,.282-.48.528.528,0,0,0-.024-.5c-.072-.144-.626-1.567-.883-2.136h0C141.634,141.888,141.406,141.871,141.2,141.863Zm0,0" transform="translate(-132.013 -134.861)" fill="#886f59"/>
  </g>
</svg>
